<?xml version="1.0" encoding="UTF-8"?><svg id="_レイヤー_2" xmlns="http://www.w3.org/2000/svg" viewBox="0 0 398.72 338.96"><defs><style>.cls-1{fill:#e2e2e2;}.cls-2{fill:#94ff99;}.cls-3{fill:#97d0ff;}</style></defs><g id="_レイヤー_1-2"><path class="cls-2" d="m26.91,338.96c-.6,0-1.21-.14-1.79-.42-1.98-.99-2.78-3.39-1.79-5.37,7.9-15.79,15.1-32.23,9-44.42-.99-1.98-.19-4.38,1.79-5.37,1.98-.99,4.38-.19,5.37,1.79,7.75,15.49-.2,33.97-9,51.58-.7,1.4-2.11,2.21-3.58,2.21Z"/><path class="cls-2" d="m42.03,294.43c-4,0-7.3-.81-8.9-2.88-1.29-1.68-2.65-5.22,2.81-10.05h0c7.91-7.01,18.81-10.79,27.12-9.42,4.3.71,7.53,2.75,9.33,5.89.67,1.17,2.4,5.29-3.4,9.16-4.32,2.88-17.57,7.3-26.95,7.3Zm17.58-14.62c-4.79,0-11.5,2.13-17.19,6.69,6.26-.27,17.73-3.19,21.79-5.72-.76-.44-1.68-.67-2.45-.8-.66-.11-1.38-.16-2.14-.16Z"/><path class="cls-2" d="m31.12,294.43c-9.38,0-22.62-4.42-26.95-7.3-5.81-3.87-4.07-7.99-3.4-9.16,1.8-3.15,5.02-5.18,9.33-5.89,8.31-1.37,19.2,2.42,27.11,9.42,5.46,4.83,4.1,8.37,2.81,10.05-1.6,2.07-4.9,2.88-8.9,2.88Zm2.16-5.47h.01-.01Zm-24.33-8.19c4.05,2.54,15.52,5.46,21.79,5.72-6.61-5.29-14.58-7.31-19.33-6.53-.77.13-1.69.36-2.45.8Z"/><path class="cls-1" d="m398.72,40.5c0-21.26-17.24-38.5-38.5-38.5-16.86,0-31.18,10.84-36.39,25.93-.29.06-.57.13-.86.2-9.07-16.18-26.38-27.13-46.25-27.13-14.24,0-27.16,5.63-36.68,14.77-1.75-.17-3.52-.27-5.32-.27-7.67,0-14.94,1.64-21.52,4.57-5.74-11.88-17.9-20.07-31.98-20.07-15.83,0-29.24,10.37-33.81,24.68-6.51-7.75-16.27-12.68-27.19-12.68-19.61,0-35.5,15.89-35.5,35.5s15.89,35.5,35.5,35.5c5.17,0,10.08-1.11,14.51-3.1.21,19.42,16.02,35.1,35.49,35.1,9.96,0,18.96-4.11,25.41-10.72,9.69,10.58,23.61,17.22,39.09,17.22,14.24,0,27.16-5.63,36.68-14.77.69.07,1.39.12,2.09.16,6.34,9.7,17.28,16.11,29.73,16.11,13.68,0,25.55-7.75,31.48-19.09,15.77-1,28.96-11.5,33.91-25.84,17.23-3.83,30.11-19.19,30.11-37.57Z"/><path class="cls-3" d="m114.72,169c-.38,0-.76-.05-1.14-.17-2.12-.63-3.32-2.86-2.69-4.97l11-37c.63-2.12,2.85-3.33,4.97-2.69,2.12.63,3.32,2.86,2.69,4.97l-11,37c-.52,1.74-2.11,2.86-3.83,2.86Z"/><path class="cls-3" d="m143.72,215c-.38,0-.76-.05-1.14-.17-2.12-.63-3.32-2.86-2.69-4.97l11-37c.63-2.12,2.86-3.33,4.97-2.69,2.12.63,3.32,2.86,2.69,4.97l-11,37c-.52,1.74-2.11,2.86-3.83,2.86Z"/><path class="cls-3" d="m189.72,178c-.38,0-.76-.05-1.14-.17-2.12-.63-3.32-2.86-2.69-4.97l11-37c.63-2.12,2.86-3.33,4.97-2.69,2.12.63,3.32,2.86,2.69,4.97l-11,37c-.52,1.74-2.11,2.86-3.83,2.86Z"/><path class="cls-3" d="m215.72,252c-.38,0-.76-.05-1.14-.17-2.12-.63-3.32-2.86-2.69-4.97l11-37c.63-2.12,2.86-3.33,4.97-2.69,2.12.63,3.32,2.86,2.69,4.97l-11,37c-.52,1.74-2.11,2.86-3.83,2.86Z"/><path class="cls-3" d="m254.72,192c-.38,0-.76-.05-1.14-.17-2.12-.63-3.32-2.86-2.69-4.97l11-37c.63-2.12,2.85-3.32,4.97-2.69,2.12.63,3.32,2.86,2.69,4.97l-11,37c-.52,1.74-2.11,2.86-3.83,2.86Z"/><path class="cls-3" d="m275.72,257c-.38,0-.76-.05-1.14-.17-2.12-.63-3.32-2.86-2.69-4.97l11-37c.63-2.12,2.85-3.33,4.97-2.69,2.12.63,3.32,2.86,2.69,4.97l-11,37c-.52,1.74-2.11,2.86-3.83,2.86Z"/><path class="cls-3" d="m317.72,190c-.38,0-.76-.05-1.14-.17-2.12-.63-3.32-2.86-2.69-4.97l11-37c.63-2.12,2.85-3.33,4.97-2.69,2.12.63,3.32,2.86,2.69,4.97l-11,37c-.52,1.74-2.11,2.86-3.83,2.86Z"/></g></svg>