<?xml version="1.0" encoding="UTF-8"?><svg id="_レイヤー_2" xmlns="http://www.w3.org/2000/svg" viewBox="0 0 398.91 338"><defs><style>.cls-1{fill:#ff9292;}.cls-2{fill:#94ff99;}</style></defs><g id="_レイヤー_1-2"><circle class="cls-1" cx="297.41" cy="101.5" r="101.5"/><line class="cls-1" x1="187.91" y1="44" x2="121.91" y2="33.59"/><path class="cls-1" d="m187.91,48c-.21,0-.42-.02-.63-.05l-66-10.41c-2.18-.34-3.67-2.39-3.33-4.57s2.39-3.67,4.57-3.33l66,10.41c2.18.34,3.67,2.39,3.33,4.57-.31,1.97-2.01,3.38-3.95,3.38Z"/><line class="cls-1" x1="173.27" y1="87.02" x2="106.55" y2="90.56"/><path class="cls-1" d="m106.54,94.56c-2.11,0-3.88-1.65-3.99-3.79-.12-2.21,1.58-4.09,3.78-4.21l66.72-3.54c2.23-.11,4.09,1.58,4.21,3.78.12,2.21-1.58,4.09-3.78,4.21l-66.72,3.54c-.07,0-.14,0-.22,0Z"/><line class="cls-1" x1="181.91" y1="125.19" x2="117.91" y2="144.4"/><path class="cls-1" d="m117.91,148.4c-1.72,0-3.31-1.12-3.83-2.85-.63-2.12.57-4.35,2.68-4.98l64-19.21c2.11-.64,4.35.56,4.98,2.68.63,2.12-.57,4.35-2.68,4.98l-64,19.21c-.38.12-.77.17-1.15.17Z"/><line class="cls-1" x1="188.09" y1="168.38" x2="133.73" y2="207.21"/><path class="cls-1" d="m133.73,211.21c-1.25,0-2.48-.58-3.26-1.67-1.28-1.8-.87-4.3.93-5.58l54.37-38.84c1.8-1.28,4.29-.87,5.58.93,1.28,1.8.87,4.3-.93,5.58l-54.37,38.84c-.71.5-1.52.75-2.32.75Z"/><line class="cls-1" x1="219.84" y1="195.76" x2="177.97" y2="247.83"/><path class="cls-1" d="m177.97,251.83c-.88,0-1.76-.29-2.5-.88-1.72-1.38-2-3.9-.61-5.62l41.87-52.07c1.38-1.72,3.9-1.99,5.62-.61,1.72,1.38,2,3.9.61,5.62l-41.87,52.07c-.79.98-1.95,1.49-3.12,1.49Z"/><line class="cls-1" x1="258.39" y1="217.69" x2="229.43" y2="277.9"/><path class="cls-1" d="m229.43,281.9c-.58,0-1.17-.13-1.73-.4-1.99-.96-2.83-3.35-1.87-5.34l28.95-60.22c.96-1.99,3.34-2.83,5.34-1.87,1.99.96,2.83,3.35,1.87,5.34l-28.95,60.22c-.69,1.43-2.12,2.27-3.61,2.27Z"/><line class="cls-1" x1="291.11" y1="227.41" x2="288.71" y2="294.18"/><path class="cls-1" d="m288.71,298.18s-.1,0-.15,0c-2.21-.08-3.93-1.93-3.85-4.14l2.41-66.77c.08-2.21,1.89-3.92,4.14-3.85,2.21.08,3.93,1.93,3.85,4.14l-2.41,66.77c-.08,2.16-1.85,3.86-3.99,3.86Z"/><line class="cls-1" x1="341.6" y1="225.44" x2="358.22" y2="290.15"/><path class="cls-1" d="m358.21,294.15c-1.78,0-3.41-1.2-3.87-3.01l-16.62-64.72c-.55-2.14.74-4.32,2.88-4.87,2.14-.55,4.32.74,4.87,2.88l16.62,64.72c.55,2.14-.74,4.32-2.88,4.87-.33.09-.67.13-1,.13Z"/><path class="cls-2" d="m26.91,338c-.6,0-1.21-.14-1.79-.42-1.98-.99-2.78-3.39-1.79-5.37,7.9-15.79,15.1-32.23,9-44.42-.99-1.98-.19-4.38,1.79-5.37,1.97-.99,4.38-.19,5.37,1.79,7.75,15.49-.2,33.97-9,51.58-.7,1.4-2.11,2.21-3.58,2.21Z"/><path class="cls-2" d="m42.03,293.47c-4,0-7.3-.81-8.9-2.88-1.29-1.68-2.65-5.22,2.81-10.05l2.65,2.99-2.65-2.99c7.91-7.01,18.8-10.79,27.12-9.42,4.3.71,7.53,2.75,9.33,5.89.67,1.17,2.4,5.29-3.4,9.16-4.32,2.88-17.57,7.29-26.95,7.3Zm17.58-14.62c-4.79,0-11.5,2.13-17.19,6.69,6.26-.27,17.73-3.19,21.79-5.72-.76-.44-1.68-.67-2.45-.8-.66-.11-1.38-.16-2.14-.16Z"/><path class="cls-2" d="m31.12,293.47c-9.38,0-22.62-4.42-26.95-7.3-5.8-3.87-4.07-7.99-3.4-9.16,1.8-3.15,5.02-5.18,9.33-5.89,8.3-1.37,19.2,2.42,27.12,9.42,5.46,4.83,4.1,8.37,2.81,10.05-1.6,2.07-4.9,2.88-8.9,2.88Zm2.16-5.47h0,0Zm-24.33-8.19c4.05,2.54,15.52,5.46,21.79,5.72-6.61-5.29-14.58-7.31-19.33-6.53-.77.13-1.69.36-2.45.8Z"/></g></svg>